<svg width="64" height="64" viewBox="0 0 64 64" fill="none" xmlns="http://www.w3.org/2000/svg">
  <!-- Gear/cog -->
  <path d="M32 16 L34 12 L30 12 Z M32 52 L30 56 L34 56 Z M48 32 L52 30 L52 34 Z M16 32 L12 34 L12 30 Z M44 20 L46 16 L42 18 Z M20 44 L18 48 L22 46 Z M44 44 L42 48 L46 46 Z M20 20 L22 16 L18 18 Z" stroke="currentColor" stroke-width="2" fill="none" stroke-linejoin="round"/>
  <circle cx="32" cy="32" r="8" stroke="currentColor" stroke-width="2" fill="none"/>
  <circle cx="32" cy="32" r="4" stroke="currentColor" stroke-width="2" fill="none"/>
  <!-- Wrench -->
  <path d="M44 8 L48 12 L42 18 L40 16 L44 8 Z" stroke="currentColor" stroke-width="2" fill="none" stroke-linejoin="round"/>
  <path d="M40 16 L24 32 L20 28 L36 12" stroke="currentColor" stroke-width="2" fill="none" stroke-linejoin="round"/>
  <circle cx="22" cy="30" r="2" stroke="currentColor" stroke-width="2" fill="none"/>
</svg>
